<mxfile host="app.diagrams.net" modified="2024-03-05T09:26:25.578Z" agent="Mozilla/5.0 (Macintosh; Intel Mac OS X 10_15_7) AppleWebKit/537.36 (KHTML, like Gecko) Chrome/122.0.0.0 Safari/537.36" etag="6UtU2eJubYXksSI2896v" version="24.0.1" type="device">
  <diagram name="PÃ¡gina-1" id="tYmLiEwEMPGMQ0-EJTuI">
    <mxGraphModel dx="1012" dy="636" grid="1" gridSize="10" guides="1" tooltips="1" connect="1" arrows="1" fold="1" page="1" pageScale="8" pageWidth="1200" pageHeight="1600" math="0" shadow="0">
      <root>
        <mxCell id="0" />
        <mxCell id="1" parent="0" />
        <mxCell id="JifNjsEfJaHmQElctE8R-52" value="" style="rounded=0;whiteSpace=wrap;html=1;fillColor=#dae8fc;strokeColor=#6c8ebf;perimeterSpacing=3;" vertex="1" parent="1">
          <mxGeometry x="141.1" y="770" width="2.2" height="50" as="geometry" />
        </mxCell>
        <mxCell id="JifNjsEfJaHmQElctE8R-57" value="" style="rounded=0;whiteSpace=wrap;html=1;fillColor=#dae8fc;strokeColor=#6c8ebf;perimeterSpacing=3;" vertex="1" parent="1">
          <mxGeometry x="223.00000000000003" y="940" width="6.7" height="50" as="geometry" />
        </mxCell>
        <mxCell id="JifNjsEfJaHmQElctE8R-58" value="" style="rounded=0;whiteSpace=wrap;html=1;fillColor=#dae8fc;strokeColor=#6c8ebf;perimeterSpacing=3;" vertex="1" parent="1">
          <mxGeometry x="268" y="1019" width="8.9" height="50" as="geometry" />
        </mxCell>
        <mxCell id="JifNjsEfJaHmQElctE8R-59" value="" style="rounded=0;whiteSpace=wrap;html=1;fillColor=#dae8fc;strokeColor=#6c8ebf;perimeterSpacing=3;" vertex="1" parent="1">
          <mxGeometry x="181" y="857" width="5.55" height="50" as="geometry" />
        </mxCell>
        <mxCell id="JifNjsEfJaHmQElctE8R-60" value="" style="rounded=0;whiteSpace=wrap;html=1;fillColor=#dae8fc;strokeColor=#6c8ebf;perimeterSpacing=3;" vertex="1" parent="1">
          <mxGeometry x="319" y="1091" width="10" height="50" as="geometry" />
        </mxCell>
        <mxCell id="JifNjsEfJaHmQElctE8R-61" value="" style="rounded=0;whiteSpace=wrap;html=1;fillColor=#dae8fc;strokeColor=#6c8ebf;perimeterSpacing=3;" vertex="1" parent="1">
          <mxGeometry x="160" y="770" width="5.55" height="50" as="geometry" />
        </mxCell>
        <mxCell id="JifNjsEfJaHmQElctE8R-62" value="" style="rounded=0;whiteSpace=wrap;html=1;fillColor=#dae8fc;strokeColor=#6c8ebf;perimeterSpacing=3;" vertex="1" parent="1">
          <mxGeometry x="181" y="770" width="5.55" height="50" as="geometry" />
        </mxCell>
        <mxCell id="JifNjsEfJaHmQElctE8R-66" value="" style="endArrow=classic;html=1;rounded=0;exitX=1;exitY=0.5;exitDx=0;exitDy=0;entryX=0;entryY=0.5;entryDx=0;entryDy=0;fillColor=#fff2cc;strokeColor=#d6b656;" edge="1" parent="1">
          <mxGeometry width="50" height="50" relative="1" as="geometry">
            <mxPoint x="144.29999999999995" y="795" as="sourcePoint" />
            <mxPoint x="160" y="795" as="targetPoint" />
          </mxGeometry>
        </mxCell>
        <mxCell id="JifNjsEfJaHmQElctE8R-67" value="" style="endArrow=classic;html=1;rounded=0;exitX=1;exitY=0.5;exitDx=0;exitDy=0;entryX=0;entryY=0.5;entryDx=0;entryDy=0;fillColor=#fff2cc;strokeColor=#d6b656;" edge="1" parent="1">
          <mxGeometry width="50" height="50" relative="1" as="geometry">
            <mxPoint x="165.02999999999994" y="794.6" as="sourcePoint" />
            <mxPoint x="180.73" y="794.6" as="targetPoint" />
          </mxGeometry>
        </mxCell>
        <mxCell id="JifNjsEfJaHmQElctE8R-70" value="" style="rounded=0;whiteSpace=wrap;html=1;fillColor=#dae8fc;strokeColor=#6c8ebf;perimeterSpacing=3;" vertex="1" parent="1">
          <mxGeometry x="201.00000000000003" y="857" width="6.7" height="50" as="geometry" />
        </mxCell>
        <mxCell id="JifNjsEfJaHmQElctE8R-71" value="" style="rounded=0;whiteSpace=wrap;html=1;fillColor=#dae8fc;strokeColor=#6c8ebf;perimeterSpacing=3;" vertex="1" parent="1">
          <mxGeometry x="223.00000000000003" y="857" width="6.7" height="50" as="geometry" />
        </mxCell>
        <mxCell id="JifNjsEfJaHmQElctE8R-75" value="" style="endArrow=classic;html=1;rounded=0;exitX=1;exitY=0.5;exitDx=0;exitDy=0;entryX=0;entryY=0.5;entryDx=0;entryDy=0;fillColor=#fff2cc;strokeColor=#d6b656;" edge="1" parent="1">
          <mxGeometry width="50" height="50" relative="1" as="geometry">
            <mxPoint x="186.54999999999995" y="881.6" as="sourcePoint" />
            <mxPoint x="202.25" y="881.6" as="targetPoint" />
          </mxGeometry>
        </mxCell>
        <mxCell id="JifNjsEfJaHmQElctE8R-76" value="" style="endArrow=classic;html=1;rounded=0;exitX=1;exitY=0.5;exitDx=0;exitDy=0;entryX=0;entryY=0.5;entryDx=0;entryDy=0;fillColor=#fff2cc;strokeColor=#d6b656;" edge="1" parent="1">
          <mxGeometry width="50" height="50" relative="1" as="geometry">
            <mxPoint x="207.69999999999996" y="881.6" as="sourcePoint" />
            <mxPoint x="223.4" y="881.6" as="targetPoint" />
          </mxGeometry>
        </mxCell>
        <mxCell id="JifNjsEfJaHmQElctE8R-77" value="" style="rounded=0;whiteSpace=wrap;html=1;fillColor=#dae8fc;strokeColor=#6c8ebf;perimeterSpacing=3;" vertex="1" parent="1">
          <mxGeometry x="244" y="940" width="8.9" height="50" as="geometry" />
        </mxCell>
        <mxCell id="JifNjsEfJaHmQElctE8R-78" value="" style="rounded=0;whiteSpace=wrap;html=1;fillColor=#dae8fc;strokeColor=#6c8ebf;perimeterSpacing=3;" vertex="1" parent="1">
          <mxGeometry x="268" y="941" width="8.9" height="50" as="geometry" />
        </mxCell>
        <mxCell id="JifNjsEfJaHmQElctE8R-79" value="" style="endArrow=classic;html=1;rounded=0;exitX=1;exitY=0.5;exitDx=0;exitDy=0;entryX=0;entryY=0.5;entryDx=0;entryDy=0;fillColor=#fff2cc;strokeColor=#d6b656;" edge="1" parent="1">
          <mxGeometry width="50" height="50" relative="1" as="geometry">
            <mxPoint x="228.29999999999995" y="964.6" as="sourcePoint" />
            <mxPoint x="244" y="964.6" as="targetPoint" />
          </mxGeometry>
        </mxCell>
        <mxCell id="JifNjsEfJaHmQElctE8R-80" value="" style="endArrow=classic;html=1;rounded=0;exitX=1;exitY=0.5;exitDx=0;exitDy=0;entryX=0;entryY=0.5;entryDx=0;entryDy=0;fillColor=#fff2cc;strokeColor=#d6b656;" edge="1" parent="1">
          <mxGeometry width="50" height="50" relative="1" as="geometry">
            <mxPoint x="252.89999999999995" y="964.6" as="sourcePoint" />
            <mxPoint x="268.6" y="964.6" as="targetPoint" />
          </mxGeometry>
        </mxCell>
        <mxCell id="JifNjsEfJaHmQElctE8R-83" value="" style="rounded=0;whiteSpace=wrap;html=1;fillColor=#dae8fc;strokeColor=#6c8ebf;perimeterSpacing=3;" vertex="1" parent="1">
          <mxGeometry x="292" y="1019" width="10" height="50" as="geometry" />
        </mxCell>
        <mxCell id="JifNjsEfJaHmQElctE8R-84" value="" style="rounded=0;whiteSpace=wrap;html=1;fillColor=#dae8fc;strokeColor=#6c8ebf;perimeterSpacing=3;" vertex="1" parent="1">
          <mxGeometry x="318" y="1019" width="10" height="50" as="geometry" />
        </mxCell>
        <mxCell id="JifNjsEfJaHmQElctE8R-85" value="" style="endArrow=classic;html=1;rounded=0;exitX=1;exitY=0.5;exitDx=0;exitDy=0;entryX=0;entryY=0.5;entryDx=0;entryDy=0;fillColor=#fff2cc;strokeColor=#d6b656;" edge="1" parent="1">
          <mxGeometry width="50" height="50" relative="1" as="geometry">
            <mxPoint x="276.9" y="1043.6" as="sourcePoint" />
            <mxPoint x="292.6" y="1043.6" as="targetPoint" />
          </mxGeometry>
        </mxCell>
        <mxCell id="JifNjsEfJaHmQElctE8R-86" value="" style="endArrow=classic;html=1;rounded=0;exitX=1;exitY=0.5;exitDx=0;exitDy=0;entryX=0;entryY=0.5;entryDx=0;entryDy=0;fillColor=#fff2cc;strokeColor=#d6b656;" edge="1" parent="1">
          <mxGeometry width="50" height="50" relative="1" as="geometry">
            <mxPoint x="301.99999999999994" y="1043.6" as="sourcePoint" />
            <mxPoint x="317.7" y="1043.6" as="targetPoint" />
          </mxGeometry>
        </mxCell>
        <mxCell id="JifNjsEfJaHmQElctE8R-88" value="" style="rounded=0;whiteSpace=wrap;html=1;fillColor=#dae8fc;strokeColor=#6c8ebf;perimeterSpacing=3;" vertex="1" parent="1">
          <mxGeometry x="344" y="1091" width="11.65" height="50" as="geometry" />
        </mxCell>
        <mxCell id="JifNjsEfJaHmQElctE8R-89" value="" style="rounded=0;whiteSpace=wrap;html=1;fillColor=#dae8fc;strokeColor=#6c8ebf;perimeterSpacing=3;" vertex="1" parent="1">
          <mxGeometry x="370" y="1091" width="11.65" height="50" as="geometry" />
        </mxCell>
        <mxCell id="JifNjsEfJaHmQElctE8R-91" value="" style="endArrow=classic;html=1;rounded=0;exitX=1;exitY=0.5;exitDx=0;exitDy=0;entryX=0;entryY=0.5;entryDx=0;entryDy=0;fillColor=#fff2cc;strokeColor=#d6b656;" edge="1" parent="1">
          <mxGeometry width="50" height="50" relative="1" as="geometry">
            <mxPoint x="329" y="1115.6699999999998" as="sourcePoint" />
            <mxPoint x="344.70000000000005" y="1115.6699999999998" as="targetPoint" />
          </mxGeometry>
        </mxCell>
        <mxCell id="JifNjsEfJaHmQElctE8R-92" value="" style="endArrow=classic;html=1;rounded=0;exitX=1;exitY=0.5;exitDx=0;exitDy=0;entryX=0;entryY=0.5;entryDx=0;entryDy=0;fillColor=#fff2cc;strokeColor=#d6b656;" edge="1" parent="1">
          <mxGeometry width="50" height="50" relative="1" as="geometry">
            <mxPoint x="355.65" y="1115.6699999999998" as="sourcePoint" />
            <mxPoint x="371.35" y="1115.6699999999998" as="targetPoint" />
          </mxGeometry>
        </mxCell>
      </root>
    </mxGraphModel>
  </diagram>
</mxfile>
